<svg id="visual" viewBox="0 0 900 100" width="900" height="100" xmlns="http://www.w3.org/2000/svg" xmlns:xlink="http://www.w3.org/1999/xlink" version="1.1"><rect x="0" y="0" width="900" height="100" fill="#0A090D"></rect><path d="M0 33L8.3 42C16.7 51 33.3 69 50 67.2C66.7 65.3 83.3 43.7 100 36.7C116.7 29.7 133.3 37.3 150 46.5C166.7 55.7 183.3 66.3 200 64.3C216.7 62.3 233.3 47.7 250 47.8C266.7 48 283.3 63 300 71.5C316.7 80 333.3 82 350 83.5C366.7 85 383.3 86 400 76C416.7 66 433.3 45 450 41.3C466.7 37.7 483.3 51.3 500 55.7C516.7 60 533.3 55 550 50.7C566.7 46.3 583.3 42.7 600 47.5C616.7 52.3 633.3 65.7 650 72.3C666.7 79 683.3 79 700 68C716.7 57 733.3 35 750 30.7C766.7 26.3 783.3 39.7 800 46.8C816.7 54 833.3 55 850 50.7C866.7 46.3 883.3 36.7 891.7 31.8L900 27L900 101L891.7 101C883.3 101 866.7 101 850 101C833.3 101 816.7 101 800 101C783.3 101 766.7 101 750 101C733.3 101 716.7 101 700 101C683.3 101 666.7 101 650 101C633.3 101 616.7 101 600 101C583.3 101 566.7 101 550 101C533.3 101 516.7 101 500 101C483.3 101 466.7 101 450 101C433.3 101 416.7 101 400 101C383.3 101 366.7 101 350 101C333.3 101 316.7 101 300 101C283.3 101 266.7 101 250 101C233.3 101 216.7 101 200 101C183.3 101 166.7 101 150 101C133.3 101 116.7 101 100 101C83.3 101 66.7 101 50 101C33.3 101 16.7 101 8.3 101L0 101Z" fill="#F2F2F2" stroke-linecap="round" stroke-linejoin="miter"></path></svg>